<?xml version="1.0" standalone="no"?>
<!DOCTYPE svg PUBLIC "-//W3C//DTD SVG 20010904//EN"
 "http://www.w3.org/TR/2001/REC-SVG-20010904/DTD/svg10.dtd">
<svg version="1.0" xmlns="http://www.w3.org/2000/svg"
 width="626.000000pt" height="626.000000pt" viewBox="0 0 626.000000 626.000000"
 preserveAspectRatio="xMidYMid meet">

<g transform="translate(0.000000,626.000000) scale(0.100000,-0.100000)"
fill="#000000" stroke="none">
<path d="M3275 5299 c-68 -53 -195 -130 -302 -183 -93 -46 -190 -78 -363 -119
-196 -46 -337 -115 -447 -220 -104 -99 -153 -194 -168 -328 -5 -41 -19 -88
-41 -131 -53 -106 -75 -197 -81 -339 -8 -183 24 -349 101 -523 22 -50 28 -56
44 -47 35 19 141 140 182 210 46 77 102 225 119 316 7 33 14 70 16 81 l5 22
77 -24 c83 -26 340 -84 369 -84 15 0 14 4 -8 28 -59 63 -76 125 -43 152 12 10
21 7 52 -18 246 -193 645 -352 886 -352 l49 0 -79 58 c-135 100 -227 218 -254
325 -6 26 -9 50 -7 53 3 2 45 -3 94 -12 52 -9 157 -17 254 -19 l164 -3 13 -97
c25 -198 95 -382 196 -511 68 -86 131 -139 145 -121 17 21 61 132 86 219 54
188 57 376 10 546 -15 51 -25 94 -23 96 2 1 29 18 59 37 84 52 161 120 218
192 29 36 52 68 52 71 0 3 -29 6 -65 6 -127 0 -236 51 -360 170 -233 222 -513
362 -773 386 -70 7 -71 7 -57 28 27 38 13 107 -33 159 -21 24 -30 21 -87 -24z"/>
<path d="M2205 1665 c-63 -14 -170 -52 -220 -79 -16 -9 -48 -16 -70 -16 -55 0
-174 -34 -248 -71 -179 -90 -311 -228 -414 -434 -115 -228 -170 -490 -180
-852 l-6 -213 987 0 c782 0 986 3 986 13 -1 6 -112 383 -248 837 l-248 825
-139 2 c-87 1 -163 -3 -200 -12z"/>
<path d="M3695 1624 c-9 -33 -66 -228 -127 -434 -60 -206 -161 -552 -224 -768
-64 -217 -118 -400 -121 -408 -4 -12 137 -14 982 -14 l988 0 -6 213 c-3 116
-13 259 -22 317 -76 496 -264 815 -572 969 -73 36 -192 71 -245 71 -21 0 -71
13 -112 30 -135 53 -229 72 -382 78 l-142 4 -17 -58z"/>
</g>
</svg>
